<?xml version="1.0" encoding="utf-8"?>
<!-- Generator: Adobe Illustrator 23.0.3, SVG Export Plug-In . SVG Version: 6.00 Build 0)  -->
<svg version="1.1" id="Laag_1" xmlns="http://www.w3.org/2000/svg" xmlns:xlink="http://www.w3.org/1999/xlink" x="0px" y="0px"
	 viewBox="0 0 16 16" style="enable-background:new 0 0 16 16;" xml:space="preserve">
<style type="text/css">
	.st0{fill-rule:evenodd;clip-rule:evenodd;fill:#1D1D1D;}
</style>
<title>instagram-icon-white</title>
<desc>Created with Sketch.</desc>
<g id="Assets">
	<g id="instagram-icon-white">
		<path id="Icon" class="st0" d="M0,4.6278629C0,2.0719647,2.058965,0,4.6278629,0h6.7442741C13.9280348,0,16,2.058965,16,4.6278629
			v6.7442741C16,13.9280348,13.9410353,16,11.3721371,16H4.6278629C2.0719647,16,0,13.9410353,0,11.3721371V4.6278629z
			 M1.4482758,4.7548289v6.4903417c0,1.8288927,1.4803944,3.3065538,3.3065531,3.3065538h6.4903417
			c1.8288927,0,3.3065538-1.4803944,3.3065538-3.3065538V4.7548289c0-1.8288925-1.4803944-3.3065531-3.3065538-3.3065531H4.7548289
			C2.9259365,1.4482758,1.4482758,2.9286702,1.4482758,4.7548289z M8,12.0689659
			c-2.2472277,0-4.0689654-1.8217382-4.0689654-4.0689659S5.7527723,3.9310346,8,3.9310346S12.0689659,5.7527723,12.0689659,8
			S10.2472277,12.0689659,8,12.0689659z M8,10.6206894c1.4473667,0,2.6206894-1.1733227,2.6206894-2.6206894
			S9.4473667,5.3793101,8,5.3793101S5.3793101,6.5526333,5.3793101,8S6.5526333,10.6206894,8,10.6206894z M12.2068968,4.6896553
			c-0.5332403,0-0.965517-0.4322767-0.965517-0.9655173s0.4322767-0.9655173,0.965517-0.9655173
			s0.965517,0.4322767,0.965517,0.9655173S12.7401371,4.6896553,12.2068968,4.6896553z"/>
	</g>
</g>
</svg>
