<?xml version="1.0" encoding="utf-8"?>
<!-- Generator: Adobe Illustrator 23.0.6, SVG Export Plug-In . SVG Version: 6.00 Build 0)  -->
<svg version="1.1" id="Laag_1" xmlns="http://www.w3.org/2000/svg" xmlns:xlink="http://www.w3.org/1999/xlink" x="0px" y="0px"
	 viewBox="0 0 24.1 23.8" style="enable-background:new 0 0 24.1 23.8;" xml:space="preserve">
<path d="M21.5,22.6l-4.6-4.4l-0.3,0.2c-1.7,1.3-3.9,2-6.1,2c-5.6,0-10-4.4-10.1-9.9c0-2.7,1-5.2,2.9-7.1c1.9-1.9,4.4-3,7-3
	c5.6,0,10,4.4,10.1,9.9c0,2.2-0.7,4.3-2.1,6l-0.2,0.3l3.1,3l1.5,1.5l0.9,0.8l-1.3,1.4L21.5,22.6z M10.5,2.2c-4.5,0-8.1,3.6-8.1,8.1
	c0,4.4,3.7,8,8.1,8c4.5,0,8-3.5,8.1-8C18.6,5.8,15,2.2,10.5,2.2z"/>
</svg>
