<?xml version="1.0" encoding="utf-8"?>
<!-- Generator: Adobe Illustrator 23.0.6, SVG Export Plug-In . SVG Version: 6.00 Build 0)  -->
<svg version="1.1" id="Laag_1" xmlns="http://www.w3.org/2000/svg" xmlns:xlink="http://www.w3.org/1999/xlink" x="0px" y="0px"
	 viewBox="0 0 22.7 24" style="enable-background:new 0 0 22.7 24;" xml:space="preserve">
<g id="shopping_bag" transform="translate(-0.6)">
	<path d="M1,23.6L1.6,5.8h4.6V4c0-2,1.6-3.6,3.6-3.6h4.5c2,0,3.6,1.6,3.6,3.6v1.7h4.5l0.5,17.9H1z M21,21.7L20.6,7.6H3.4L3,21.7H21z
		 M15.9,5.8V4.1c0-0.5-0.2-0.9-0.5-1.2s-0.8-0.5-1.2-0.6l-4.5,0l0-0.1l0,0.1C8.8,2.3,8,3.1,8,4v1.8H15.9z"/>
</g>
</svg>
